<svg xmlns="http://www.w3.org/2000/svg" xmlns:xlink="http://www.w3.org/1999/xlink" contentStyleType="text/css" data-diagram-type="ACTIVITY" height="765px" preserveAspectRatio="none" style="width:889px;height:765px;background:#FFFFFF;" version="1.1" viewBox="0 0 889 765" width="889px" zoomAndPan="magnify"><?plantuml 1.2026.6?><defs/><g><rect fill="none" height="21.1992" style="stroke:none;stroke-width:1;" width="842.0198" x="20" y="17.2969"/><ellipse cx="189.0959" cy="53.4961" fill="#222222" rx="10" ry="10" style="stroke:#222222;stroke-width:1;"/><rect fill="#F1F1F1" height="34.1328" rx="12.5" ry="12.5" style="stroke:#181818;stroke-width:0.5;" width="211.7656" x="83.2131" y="83.4961"/><text fill="#000000" font-family="sans-serif" font-size="12" lengthAdjust="spacing" textLength="191.7656" x="93.2131" y="105.0977">Identify student needing transfer</text><rect fill="#F1F1F1" height="34.1328" rx="12.5" ry="12.5" style="stroke:#181818;stroke-width:0.5;" width="146.2695" x="115.9612" y="137.6289"/><text fill="#000000" font-family="sans-serif" font-size="12" lengthAdjust="spacing" textLength="126.2695" x="125.9612" y="159.2305">Select target program</text><polygon fill="#F1F1F1" points="47,191.7617,126.5298,191.7617,138.5298,203.7617,126.5298,215.7617,47,215.7617,35,203.7617,47,191.7617" style="stroke:#181818;stroke-width:0.5;stroke-linejoin:miter;stroke-miterlimit:10;"/><text fill="#000000" font-family="sans-serif" font-size="11" lengthAdjust="spacing" textLength="18.5894" x="90.7649" y="226.3965">Yes</text><text fill="#000000" font-family="sans-serif" font-size="11" lengthAdjust="spacing" textLength="79.5298" x="47" y="207.9189">Loan program?</text><rect fill="#F1F1F1" height="34.1328" rx="12.5" ry="12.5" style="stroke:#181818;stroke-width:0.5;" width="117.4355" x="28.0471" y="247.8965"/><text fill="#000000" font-family="sans-serif" font-size="12" lengthAdjust="spacing" textLength="97.4355" x="38.0471" y="269.498">Select institution</text><polygon fill="#F1F1F1" points="193.4758,191.7617,272.1516,191.7617,284.1516,203.7617,272.1516,215.7617,193.4758,215.7617,181.4758,203.7617,193.4758,191.7617" style="stroke:#181818;stroke-width:0.5;stroke-linejoin:miter;stroke-miterlimit:10;"/><text fill="#000000" font-family="sans-serif" font-size="11" lengthAdjust="spacing" textLength="18.5894" x="236.8137" y="226.3965">Yes</text><text fill="#000000" font-family="sans-serif" font-size="11" lengthAdjust="spacing" textLength="78.6758" x="193.4758" y="207.9189">Village school?</text><rect fill="#F1F1F1" height="34.1328" rx="12.5" ry="12.5" style="stroke:#181818;stroke-width:0.5;" width="134.6621" x="165.4827" y="247.8965"/><text fill="#000000" font-family="sans-serif" font-size="12" lengthAdjust="spacing" textLength="114.6621" x="175.4827" y="269.498">Select village sector</text><rect fill="#F1F1F1" height="34.1328" rx="12.5" ry="12.5" style="stroke:#181818;stroke-width:0.5;" width="239.3398" x="69.426" y="322.0293"/><text fill="#000000" font-family="sans-serif" font-size="12" lengthAdjust="spacing" textLength="219.3398" x="79.426" y="343.6309">Submit transition request with reason</text><line style="stroke:#000000;stroke-width:1.5;" x1="20" x2="20" y1="17.2969" y2="744.8262"/><rect fill="#F1F1F1" height="34.1328" rx="12.5" ry="12.5" style="stroke:#181818;stroke-width:0.5;" width="107.5684" x="447.9763" y="376.1621"/><text fill="#000000" font-family="sans-serif" font-size="12" lengthAdjust="spacing" textLength="87.5684" x="457.9763" y="397.7637">Review request</text><polygon fill="#F1F1F1" points="477.1824,430.2949,526.3386,430.2949,538.3386,442.2949,526.3386,454.2949,477.1824,454.2949,465.1824,442.2949,477.1824,430.2949" style="stroke:#181818;stroke-width:0.5;stroke-linejoin:miter;stroke-miterlimit:10;"/><text fill="#000000" font-family="sans-serif" font-size="11" lengthAdjust="spacing" textLength="49.1563" x="477.1824" y="446.4521">Approve?</text><text fill="#000000" font-family="sans-serif" font-size="11" lengthAdjust="spacing" textLength="18.5894" x="446.593" y="439.9746">Yes</text><text fill="#000000" font-family="sans-serif" font-size="11" lengthAdjust="spacing" textLength="14.8833" x="538.3386" y="439.9746">No</text><rect fill="#F1F1F1" height="34.1328" rx="12.5" ry="12.5" style="stroke:#181818;stroke-width:0.5;" width="157.6836" x="347.7659" y="464.2949"/><text fill="#000000" font-family="sans-serif" font-size="12" lengthAdjust="spacing" textLength="137.6836" x="357.7659" y="485.8965">Approve program move</text><rect fill="#F1F1F1" height="34.1328" rx="12.5" ry="12.5" style="stroke:#181818;stroke-width:0.5;" width="102.9277" x="525.4495" y="464.2949"/><text fill="#000000" font-family="sans-serif" font-size="12" lengthAdjust="spacing" textLength="82.9277" x="535.4495" y="485.8965">Reject request</text><ellipse cx="576.9133" cy="529.4277" fill="none" rx="11" ry="11" style="stroke:#222222;stroke-width:1;"/><ellipse cx="576.9133" cy="529.4277" fill="#222222" rx="6" ry="6" style="stroke:#222222;stroke-width:1;"/><line style="stroke:#000000;stroke-width:1.5;" x1="341.7659" x2="341.7659" y1="17.2969" y2="744.8262"/><rect fill="#F1F1F1" height="34.1328" rx="12.5" ry="12.5" style="stroke:#181818;stroke-width:0.5;" width="158.7031" x="667.9231" y="560.4277"/><text fill="#000000" font-family="sans-serif" font-size="12" lengthAdjust="spacing" textLength="138.7031" x="677.9231" y="582.0293">Create transition record</text><rect fill="#F1F1F1" height="34.1328" rx="12.5" ry="12.5" style="stroke:#181818;stroke-width:0.5;" width="217.7949" x="638.3772" y="614.5605"/><text fill="#000000" font-family="sans-serif" font-size="12" lengthAdjust="spacing" textLength="197.7949" x="648.3772" y="636.1621">Update student's current program</text><rect fill="#F1F1F1" height="34.1328" rx="12.5" ry="12.5" style="stroke:#181818;stroke-width:0.5;" width="117.0488" x="688.7502" y="668.6934"/><text fill="#000000" font-family="sans-serif" font-size="12" lengthAdjust="spacing" textLength="97.0488" x="698.7502" y="690.2949">Log to audit trail</text><ellipse cx="747.2747" cy="733.8262" fill="none" rx="11" ry="11" style="stroke:#222222;stroke-width:1;"/><ellipse cx="747.2747" cy="733.8262" fill="#222222" rx="6" ry="6" style="stroke:#222222;stroke-width:1;"/><line style="stroke:#000000;stroke-width:1.5;" x1="632.3772" x2="632.3772" y1="17.2969" y2="744.8262"/><line style="stroke:#000000;stroke-width:1.5;" x1="860.1721" x2="860.1721" y1="17.2969" y2="744.8262"/><line style="stroke:#181818;stroke-width:1;" x1="189.0959" x2="189.0959" y1="63.4961" y2="83.4961"/><polygon fill="#181818" points="185.0959,73.4961,189.0959,83.4961,193.0959,73.4961,189.0959,77.4961" style="stroke:#181818;stroke-width:1;stroke-linejoin:miter;stroke-miterlimit:10;"/><line style="stroke:#181818;stroke-width:1;" x1="189.0959" x2="189.0959" y1="117.6289" y2="137.6289"/><polygon fill="#181818" points="185.0959,127.6289,189.0959,137.6289,193.0959,127.6289,189.0959,131.6289" style="stroke:#181818;stroke-width:1;stroke-linejoin:miter;stroke-miterlimit:10;"/><line style="stroke:#181818;stroke-width:1;" x1="86.7649" x2="86.7649" y1="215.7617" y2="247.8965"/><polygon fill="#181818" points="82.7649,237.8965,86.7649,247.8965,90.7649,237.8965,86.7649,241.8965" style="stroke:#181818;stroke-width:1;stroke-linejoin:miter;stroke-miterlimit:10;"/><line style="stroke:#181818;stroke-width:1;" x1="86.7649" x2="86.7649" y1="282.0293" y2="302.0293"/><polygon fill="#181818" points="82.7649,292.0293,86.7649,302.0293,90.7649,292.0293,86.7649,296.0293" style="stroke:#181818;stroke-width:1;stroke-linejoin:miter;stroke-miterlimit:10;"/><line style="stroke:#181818;stroke-width:1;" x1="232.8137" x2="232.8137" y1="215.7617" y2="247.8965"/><polygon fill="#181818" points="228.8137,237.8965,232.8137,247.8965,236.8137,237.8965,232.8137,241.8965" style="stroke:#181818;stroke-width:1;stroke-linejoin:miter;stroke-miterlimit:10;"/><line style="stroke:#181818;stroke-width:1;" x1="232.8137" x2="232.8137" y1="282.0293" y2="302.0293"/><polygon fill="#181818" points="228.8137,292.0293,232.8137,302.0293,236.8137,292.0293,232.8137,296.0293" style="stroke:#181818;stroke-width:1;stroke-linejoin:miter;stroke-miterlimit:10;"/><line style="stroke:#181818;stroke-width:1;" x1="138.5298" x2="181.4758" y1="203.7617" y2="203.7617"/><polygon fill="#181818" points="171.4758,199.7617,181.4758,203.7617,171.4758,207.7617,175.4758,203.7617" style="stroke:#181818;stroke-width:1;stroke-linejoin:miter;stroke-miterlimit:10;"/><line style="stroke:#181818;stroke-width:1;" x1="189.0959" x2="189.0959" y1="171.7617" y2="176.7617"/><line style="stroke:#181818;stroke-width:1;" x1="189.0959" x2="86.7649" y1="176.7617" y2="176.7617"/><line style="stroke:#181818;stroke-width:1;" x1="86.7649" x2="86.7649" y1="176.7617" y2="191.7617"/><polygon fill="#181818" points="82.7649,181.7617,86.7649,191.7617,90.7649,181.7617,86.7649,185.7617" style="stroke:#181818;stroke-width:1;stroke-linejoin:miter;stroke-miterlimit:10;"/><line style="stroke:#181818;stroke-width:1;" x1="284.1516" x2="322.7659" y1="203.7617" y2="203.7617"/><line style="stroke:#181818;stroke-width:1;" x1="322.7659" x2="322.7659" y1="203.7617" y2="302.0293"/><polygon fill="#181818" points="318.7659,292.0293,322.7659,302.0293,326.7659,292.0293,322.7659,296.0293" style="stroke:#181818;stroke-width:1;stroke-linejoin:miter;stroke-miterlimit:10;"/><line style="stroke:#181818;stroke-width:1;" x1="86.7649" x2="322.7659" y1="302.0293" y2="302.0293"/><line style="stroke:#181818;stroke-width:1;" x1="189.0959" x2="189.0959" y1="302.0293" y2="322.0293"/><polygon fill="#181818" points="185.0959,312.0293,189.0959,322.0293,193.0959,312.0293,189.0959,316.0293" style="stroke:#181818;stroke-width:1;stroke-linejoin:miter;stroke-miterlimit:10;"/><line style="stroke:#181818;stroke-width:1;" x1="576.9133" x2="576.9133" y1="498.4277" y2="518.4277"/><polygon fill="#181818" points="572.9133,508.4277,576.9133,518.4277,580.9133,508.4277,576.9133,512.4277" style="stroke:#181818;stroke-width:1;stroke-linejoin:miter;stroke-miterlimit:10;"/><line style="stroke:#181818;stroke-width:1;" x1="465.1824" x2="426.6077" y1="442.2949" y2="442.2949"/><line style="stroke:#181818;stroke-width:1;" x1="426.6077" x2="426.6077" y1="442.2949" y2="464.2949"/><polygon fill="#181818" points="422.6077,454.2949,426.6077,464.2949,430.6077,454.2949,426.6077,458.2949" style="stroke:#181818;stroke-width:1;stroke-linejoin:miter;stroke-miterlimit:10;"/><line style="stroke:#181818;stroke-width:1;" x1="538.3386" x2="576.9133" y1="442.2949" y2="442.2949"/><line style="stroke:#181818;stroke-width:1;" x1="576.9133" x2="576.9133" y1="442.2949" y2="464.2949"/><polygon fill="#181818" points="572.9133,454.2949,576.9133,464.2949,580.9133,454.2949,576.9133,458.2949" style="stroke:#181818;stroke-width:1;stroke-linejoin:miter;stroke-miterlimit:10;"/><line style="stroke:#181818;stroke-width:1;" x1="426.6077" x2="426.6077" y1="498.4277" y2="545.4277"/><line style="stroke:#181818;stroke-width:1;" x1="426.6077" x2="747.2747" y1="545.4277" y2="545.4277"/><line style="stroke:#181818;stroke-width:1;" x1="747.2747" x2="747.2747" y1="545.4277" y2="560.4277"/><polygon fill="#181818" points="743.2747,550.4277,747.2747,560.4277,751.2747,550.4277,747.2747,554.4277" style="stroke:#181818;stroke-width:1;stroke-linejoin:miter;stroke-miterlimit:10;"/><line style="stroke:#181818;stroke-width:1;" x1="501.7605" x2="501.7605" y1="410.2949" y2="430.2949"/><polygon fill="#181818" points="497.7605,420.2949,501.7605,430.2949,505.7605,420.2949,501.7605,424.2949" style="stroke:#181818;stroke-width:1;stroke-linejoin:miter;stroke-miterlimit:10;"/><line style="stroke:#181818;stroke-width:1;" x1="747.2747" x2="747.2747" y1="594.5605" y2="614.5605"/><polygon fill="#181818" points="743.2747,604.5605,747.2747,614.5605,751.2747,604.5605,747.2747,608.5605" style="stroke:#181818;stroke-width:1;stroke-linejoin:miter;stroke-miterlimit:10;"/><line style="stroke:#181818;stroke-width:1;" x1="747.2747" x2="747.2747" y1="648.6934" y2="668.6934"/><polygon fill="#181818" points="743.2747,658.6934,747.2747,668.6934,751.2747,658.6934,747.2747,662.6934" style="stroke:#181818;stroke-width:1;stroke-linejoin:miter;stroke-miterlimit:10;"/><line style="stroke:#181818;stroke-width:1;" x1="747.2747" x2="747.2747" y1="702.8262" y2="722.8262"/><polygon fill="#181818" points="743.2747,712.8262,747.2747,722.8262,751.2747,712.8262,747.2747,716.8262" style="stroke:#181818;stroke-width:1;stroke-linejoin:miter;stroke-miterlimit:10;"/><line style="stroke:#181818;stroke-width:1;" x1="189.0959" x2="189.0959" y1="356.1621" y2="361.1621"/><line style="stroke:#181818;stroke-width:1;" x1="189.0959" x2="501.7605" y1="361.1621" y2="361.1621"/><line style="stroke:#181818;stroke-width:1;" x1="501.7605" x2="501.7605" y1="361.1621" y2="376.1621"/><polygon fill="#181818" points="497.7605,366.1621,501.7605,376.1621,505.7605,366.1621,501.7605,370.1621" style="stroke:#181818;stroke-width:1;stroke-linejoin:miter;stroke-miterlimit:10;"/><text fill="#000000" font-family="sans-serif" font-size="18" lengthAdjust="spacing" textLength="184.1309" x="88.8175" y="34.6992">Program Coordinator</text><text fill="#000000" font-family="sans-serif" font-size="18" lengthAdjust="spacing" textLength="70.4531" x="451.845" y="34.6992">Director</text><text fill="#000000" font-family="sans-serif" font-size="18" lengthAdjust="spacing" textLength="61.8398" x="715.3547" y="34.6992">System</text><?plantuml-src TP71QiCm38RlVWhTbhv2SYYZkmpA62qRxEWbIgBXM9ajfnJoy9ERf336RfQiN_ydQNuDt0Kxm84vDEIjS9XD51l4bCyDUg7s2b5IVe97r9eE95WVMmoLAS_ei1PGGOS2uzAjCjH2SMJhjyn-1zAZX-83uyu0R3hoKKYI4FlAe8kOXU_adEqGOjqpk_-aqrQb0IiA-ePQ1KgV0yc2IBal1FnE60Kk9Bq6DcOlCpzHk2bdKvvm8hniXGlzuwZe4_vnN_FRO31eiA13ySAtaXD-PS1xEz05yhW2clbyZOA3sXuKHl0tQgrdqBM-ZKt-MXV_4A5E8UGJt3TS7baFmM1JiunBhZBPvmS0?></g></svg>